<svg width="95" height="95" viewBox="0 0 95 95" fill="none" xmlns="http://www.w3.org/2000/svg">
<path fill-rule="evenodd" clip-rule="evenodd" d="M0.813843 8.66547V86.6086C0.813843 91.711 3.36507 94.2622 8.46747 94.2622H86.4105C91.5129 94.2622 94.064 91.711 94.064 86.6086V8.66547C94.064 3.56313 91.5129 1.01196 86.4105 1.01196H8.46747C3.36507 1.01196 0.813843 3.56313 0.813843 8.66547Z" fill="white" stroke="#868789" stroke-width="0.5669"/>
<path fill-rule="evenodd" clip-rule="evenodd" d="M78.5211 59.4192C78.5548 55.2041 77.1833 51.0277 74.684 47.6369C77.1833 44.246 78.5548 40.0696 78.5211 35.8546C78.5211 23.976 70.432 16.5537 58.1241 16.5537H25.1472C20.0996 16.5537 16.3539 20.6059 16.3562 25.5536C16.3562 40.2757 16.3562 54.998 16.3562 69.7201C16.3542 74.668 20.0994 78.72 25.1472 78.72H58.1241C70.432 78.72 78.5211 71.2977 78.5211 59.4192Z" fill="#1B1918"/>
<path fill-rule="evenodd" clip-rule="evenodd" d="M74.9766 35.7839C74.9766 39.1523 73.9632 42.2742 72.2372 44.8384C65.5333 38.2547 54.4234 34.4399 45.5912 34.4399C35.9905 34.4399 26.8802 37.9534 19.7849 44.2462V41.5919C21.9909 38.5787 24.9215 35.5401 27.7239 33.0483C35.7545 25.909 45.7381 21.009 56.8667 20.1258C59.2918 19.9334 60.8227 19.8797 63.2062 20.3966C64.0592 20.5816 64.8613 20.8509 65.616 21.1861C67.3498 21.9564 68.8396 22.9503 70.1326 24.2122C73.1401 27.1469 74.9766 31.0715 74.9766 35.7839Z" fill="#FFC300"/>
<path fill-rule="evenodd" clip-rule="evenodd" d="M25.1472 19.9824H42.0949C34.4919 22.9941 27.6096 27.7874 21.8014 33.8322C21.1097 34.552 20.4373 35.2903 19.7849 36.0455V25.5634C19.7849 22.4939 22.1978 19.9824 25.1472 19.9824Z" fill="#FFC300"/>
<path fill-rule="evenodd" clip-rule="evenodd" d="M19.843 49.0818C22.2266 46.5698 25.6073 44.0543 28.6196 42.3878C33.6988 39.5773 39.4956 37.9849 45.6494 37.9849C54.3745 37.9849 66.2899 42.3838 71.7545 49.5615C73.8083 52.2566 75.0347 55.6648 75.0347 59.3716C75.0347 67.187 69.583 73.6775 62.4214 74.9478C60.9396 75.2104 59.9084 75.1732 58.2078 75.1732H51.1182H25.2053C22.2563 75.1732 19.843 72.6618 19.843 69.5922C19.843 62.7554 19.843 55.9186 19.843 49.0818Z" fill="#FFC300"/>
<path fill-rule="evenodd" clip-rule="evenodd" d="M30.2866 59.0371C29.3959 59.0371 28.5904 58.8435 27.8701 58.4564C27.15 58.0694 26.584 57.5324 26.1718 56.8455C25.7598 56.1587 25.5538 55.3823 25.5538 54.5165C25.5538 53.6507 25.7598 52.8744 26.1718 52.1876C26.584 51.5006 27.15 50.9638 27.8701 50.5766C28.5904 50.1895 29.4001 49.9958 30.2991 49.9958C31.0568 49.9958 31.7414 50.1291 32.3533 50.3955C32.7996 50.5899 33.1939 50.8462 33.5363 51.1645C33.6391 51.2601 33.6916 51.381 33.6912 51.5212C33.6911 51.6616 33.6379 51.7823 33.5347 51.8775L32.9423 52.4244C32.7578 52.5947 32.4767 52.5971 32.2894 52.4304C31.7576 51.9564 31.1274 51.7195 30.3989 51.7195C29.8579 51.7195 29.3751 51.8381 28.9504 52.0753C28.5258 52.3126 28.1949 52.6435 27.9578 53.0681C27.7204 53.4928 27.6019 53.9756 27.6019 54.5167C27.6019 55.0578 27.7204 55.5408 27.9578 55.9654C28.1949 56.39 28.5258 56.7208 28.9504 56.958C29.3751 57.1954 29.8579 57.314 30.3989 57.314C31.1272 57.314 31.7576 57.0742 32.2894 56.5946C32.4766 56.4257 32.7591 56.4273 32.9443 56.5986L33.5378 57.1463C33.6403 57.241 33.6933 57.3609 33.6942 57.5005C33.695 57.6403 33.6435 57.7608 33.5419 57.8567C33.1976 58.1821 32.7992 58.4425 32.3472 58.6381C31.7312 58.9043 31.0444 59.0376 30.2866 59.0376V59.0371ZM42.5516 50.862L39.2156 57.0641C38.8574 57.73 38.4266 58.2337 37.923 58.5751C37.4194 58.9164 36.8719 59.0871 36.2808 59.0871C35.9721 59.0871 35.656 59.0417 35.3323 58.9509C35.2008 58.914 35.101 58.8343 35.0361 58.714C34.971 58.5937 34.9591 58.4665 35.0004 58.3361L35.205 57.6908C35.2804 57.4526 35.5211 57.3113 35.7659 57.3615C35.9353 57.3964 36.0864 57.4137 36.2186 57.4137C36.4682 57.4137 36.6931 57.3534 36.8928 57.2326C37.0928 57.1119 37.2758 56.9225 37.4421 56.6644L37.5173 56.5645L34.455 50.8617C34.3718 50.7069 34.3757 50.5333 34.4661 50.3823C34.5562 50.2314 34.7075 50.1458 34.8831 50.1458H35.9291C36.1184 50.1458 36.2807 50.2465 36.3646 50.4163L38.5535 54.8412L40.8162 50.4107C40.9013 50.2439 41.0616 50.1458 41.2488 50.1458H42.1237C42.2995 50.1458 42.4506 50.2315 42.5408 50.3825C42.631 50.5335 42.635 50.7071 42.5516 50.862ZM53.9385 50.6318V58.4013C53.9385 58.6685 53.7197 58.8872 53.4525 58.8872H44.3845C44.1173 58.8872 43.8984 58.6689 43.8984 58.4013V50.6318C43.8984 50.3641 44.1169 50.1458 44.3845 50.1458H45.423C45.6908 50.1458 45.9091 50.3641 45.9091 50.6318V57.2388H47.9196V50.6318C47.9196 50.3641 48.1378 50.1458 48.4055 50.1458H49.4442C49.7118 50.1458 49.9301 50.3643 49.9301 50.6318V57.2388H51.9279V50.6318C51.9279 50.3641 52.1462 50.1458 52.4139 50.1458H53.4525C53.7202 50.1458 53.9385 50.365 53.9385 50.6318ZM56.5974 50.1458H57.6359C57.9036 50.1458 58.1219 50.3646 58.1219 50.6318V55.8402L62.1472 50.3445C62.2418 50.2155 62.3795 50.1458 62.5394 50.1458H63.705C63.9727 50.1458 64.191 50.3646 64.191 50.6318V58.4013C64.191 58.6685 63.9723 58.8872 63.705 58.8872H62.679C62.4117 58.8872 62.1931 58.6689 62.1931 58.4013V53.2054L58.1677 58.6888C58.0735 58.8173 57.9351 58.8872 57.7758 58.8872H56.5974C56.3302 58.8872 56.1113 58.6689 56.1113 58.4013V50.6318C56.1113 50.3641 56.3298 50.1458 56.5974 50.1458Z" fill="#1B1918"/>
<path fill-rule="evenodd" clip-rule="evenodd" d="M26.0399 60.5764H32.4984C32.766 60.5764 32.9843 60.7949 32.9843 61.0624V61.7014C32.9843 61.9689 32.7658 62.1874 32.4984 62.1874H27.5645V63.9856H30.3621C31.4193 63.9856 32.2246 64.2062 32.7783 64.6474C33.3318 65.0886 33.6088 65.7255 33.6088 66.5581C33.6088 67.4323 33.3009 68.1108 32.6846 68.5936C32.0687 69.0764 31.1985 69.3179 30.0746 69.3179H26.0399C25.7723 69.3179 25.554 69.0995 25.554 68.8318V61.0624C25.554 60.7948 25.7722 60.5764 26.0399 60.5764ZM29.9623 67.8193C30.4783 67.8193 30.8739 67.7173 31.1486 67.5134C31.4232 67.3094 31.5607 67.0118 31.5607 66.6206C31.5607 65.8545 31.0277 65.4717 29.9623 65.4717H27.5645V67.8193H29.9623ZM39.3157 69.4677C38.4082 69.4677 37.5902 69.2722 36.8618 68.8808C36.1333 68.4895 35.5632 67.9505 35.1511 67.2636C34.7389 66.5768 34.5327 65.8046 34.5327 64.9472C34.5327 64.0896 34.7389 63.3175 35.1511 62.6306C35.5632 61.9439 36.1333 61.4047 36.8618 61.0134C37.5902 60.6222 38.4082 60.4265 39.3157 60.4265C40.2231 60.4265 41.0391 60.6222 41.7634 61.0134C42.4876 61.4047 43.0578 61.9439 43.4741 62.6306C43.8904 63.3175 44.0986 64.0896 44.0986 64.9472C44.0986 65.8046 43.8904 66.5768 43.4741 67.2636C43.0578 67.9505 42.4876 68.4895 41.7634 68.8808C41.0391 69.2722 40.2231 69.4677 39.3157 69.4677ZM39.3157 67.7444C39.8319 67.7444 40.2982 67.6258 40.7144 67.3885C41.1306 67.1512 41.4573 66.8203 41.6946 66.3957C41.9318 65.9711 42.0507 65.4882 42.0507 64.9472C42.0507 64.4059 41.9318 63.9231 41.6946 63.4985C41.4573 63.0739 41.1306 62.743 40.7144 62.5057C40.2982 62.2685 39.8319 62.1498 39.3157 62.1498C38.7994 62.1498 38.3333 62.2685 37.9169 62.5057C37.5007 62.743 37.1741 63.0739 36.9368 63.4985C36.6994 63.9231 36.5809 64.4059 36.5809 64.9472C36.5809 65.4882 36.6994 65.9711 36.9368 66.3957C37.1741 66.8203 37.5007 67.1512 37.9169 67.3885C38.3333 67.6258 38.7994 67.7444 39.3157 67.7444ZM49.4185 65.7963H47.6451V68.8318C47.6451 69.0995 47.4267 69.3179 47.1591 69.3179H46.1207C45.853 69.3179 45.6345 69.0995 45.6345 68.8318V61.0624C45.6345 60.7948 45.853 60.5764 46.1207 60.5764H47.1591C47.4267 60.5764 47.6451 60.7948 47.6451 61.0624V64.1104H49.4686L51.6226 60.7975C51.7148 60.6554 51.8605 60.5764 52.03 60.5764H52.9854C53.17 60.5764 53.3281 60.6718 53.4147 60.8347C53.5011 60.9977 53.4911 61.1823 53.3876 61.335L51.0419 64.7972L53.4991 68.5665C53.5991 68.7198 53.6065 68.9024 53.5192 69.0634C53.4321 69.2243 53.275 69.3179 53.092 69.3179H51.9561C51.7861 69.3179 51.6397 69.2383 51.5475 69.0954L49.4185 65.7963ZM59.0342 69.4677C58.1432 69.4677 57.3377 69.2742 56.6176 68.8871C55.8976 68.5 55.3316 67.9629 54.9194 67.2761C54.5073 66.5892 54.3013 65.8129 54.3013 64.9472C54.3013 64.0812 54.5074 63.3049 54.9194 62.6182C55.3316 61.9314 55.8976 61.3942 56.6176 61.0072C57.3377 60.6201 58.1475 60.4265 59.0466 60.4265C59.8043 60.4265 60.4891 60.5597 61.101 60.8261C61.5472 61.0204 61.9414 61.2769 62.2836 61.5951C62.3864 61.6906 62.4389 61.8116 62.4387 61.9519C62.4384 62.0922 62.3853 62.213 62.2823 62.308L61.6898 62.8551C61.5055 63.0253 61.224 63.0278 61.0367 62.8611C60.5051 62.3874 59.8749 62.1502 59.1465 62.1502C58.6054 62.1502 58.1224 62.2689 57.6978 62.5061C57.2734 62.7433 56.9424 63.0745 56.7051 63.4989C56.468 63.9235 56.3492 64.4063 56.3492 64.9476C56.3492 65.4886 56.468 65.9715 56.7051 66.3961C56.9424 66.8206 57.2734 67.1516 57.6978 67.3889C58.1225 67.6261 58.6054 67.7448 59.1465 67.7448C59.8749 67.7448 60.5051 67.5049 61.0367 67.0253C61.2239 66.8566 61.5067 66.8583 61.6918 67.0293L62.2852 67.5771C62.3879 67.6717 62.4408 67.7917 62.4417 67.9314C62.4425 68.071 62.3907 68.1916 62.2894 68.2874C61.9449 68.6129 61.5466 68.8735 61.0947 69.0688C60.4786 69.3351 59.7917 69.4684 59.0342 69.4684V69.4677Z" fill="#1B1918"/>
</svg>
